<mxfile host="app.diagrams.net" modified="2024-03-07T23:13:57.940Z" agent="Mozilla/5.0 (Windows NT 10.0; Win64; x64) AppleWebKit/537.36 (KHTML, like Gecko) Chrome/122.0.0.0 Safari/537.36" etag="kZSJ_fkC3y2QTDKRBqKh" version="24.0.2" type="google">
  <diagram name="PÃ¡gina-1" id="NBkt7IvmojByfJSfpqG8">
    <mxGraphModel grid="1" page="1" gridSize="10" guides="1" tooltips="1" connect="1" arrows="1" fold="1" pageScale="1" pageWidth="827" pageHeight="1169" math="0" shadow="0">
      <root>
        <mxCell id="0" />
        <mxCell id="1" parent="0" />
        <mxCell id="3nAupuR_qFFhwJhfHygy-1" value="&lt;font style=&quot;font-size: 12px;&quot;&gt;&lt;b style=&quot;border-color: var(--border-color);&quot;&gt;PRODUCT CONTROLLER&lt;/b&gt;&lt;br style=&quot;border-color: var(--border-color);&quot;&gt;Permite criar, editar e deletar produtos.&lt;br&gt;&lt;/font&gt;" style="rounded=0;whiteSpace=wrap;html=1;fillColor=#dae8fc;strokeColor=#6c8ebf;" vertex="1" parent="1">
          <mxGeometry x="-114" y="285" width="226" height="100" as="geometry" />
        </mxCell>
        <mxCell id="3nAupuR_qFFhwJhfHygy-3" value="&lt;b&gt;API--PRODUCT&lt;/b&gt;&lt;div&gt;Java / Spring Boot&lt;b&gt;&lt;br&gt;&lt;/b&gt;&lt;/div&gt;" style="rounded=0;whiteSpace=wrap;html=1;fillColor=#dae8fc;strokeColor=#6c8ebf;" vertex="1" parent="1">
          <mxGeometry x="-116" y="110" width="232" height="75" as="geometry" />
        </mxCell>
        <mxCell id="3nAupuR_qFFhwJhfHygy-4" value="&lt;font style=&quot;font-size: 12px;&quot;&gt;&lt;b style=&quot;border-color: var(--border-color);&quot;&gt;PRODUCT REPOSITORY&lt;/b&gt;&lt;br style=&quot;border-color: var(--border-color);&quot;&gt;Permite criar, editar e deletar produtos.&lt;br&gt;&lt;/font&gt;" style="rounded=0;whiteSpace=wrap;html=1;fillColor=#dae8fc;strokeColor=#6c8ebf;" vertex="1" parent="1">
          <mxGeometry x="-113" y="702" width="226" height="100" as="geometry" />
        </mxCell>
        <mxCell id="3nAupuR_qFFhwJhfHygy-7" value="&lt;font style=&quot;font-size: 12px;&quot;&gt;&lt;b style=&quot;border-color: var(--border-color);&quot;&gt;PRODUCT SERVICE&lt;/b&gt;&lt;br style=&quot;border-color: var(--border-color);&quot;&gt;Permite criar, editar e deletar produtos.&lt;br&gt;&lt;/font&gt;" style="rounded=0;whiteSpace=wrap;html=1;fillColor=#dae8fc;strokeColor=#6c8ebf;" vertex="1" parent="1">
          <mxGeometry x="-114" y="525" width="226" height="100" as="geometry" />
        </mxCell>
        <mxCell id="3nAupuR_qFFhwJhfHygy-8" value="" style="endArrow=classic;startArrow=classic;html=1;rounded=0;entryX=0.5;entryY=1;entryDx=0;entryDy=0;exitX=0.5;exitY=0;exitDx=0;exitDy=0;" edge="1" parent="1" source="3nAupuR_qFFhwJhfHygy-7" target="3nAupuR_qFFhwJhfHygy-1">
          <mxGeometry width="50" height="50" relative="1" as="geometry">
            <mxPoint x="783" y="615" as="sourcePoint" />
            <mxPoint x="833" y="565" as="targetPoint" />
          </mxGeometry>
        </mxCell>
        <mxCell id="3nAupuR_qFFhwJhfHygy-9" value="" style="endArrow=classic;startArrow=classic;html=1;rounded=0;entryX=0.5;entryY=1;entryDx=0;entryDy=0;exitX=0.5;exitY=0;exitDx=0;exitDy=0;" edge="1" parent="1" source="3nAupuR_qFFhwJhfHygy-4" target="3nAupuR_qFFhwJhfHygy-7">
          <mxGeometry width="50" height="50" relative="1" as="geometry">
            <mxPoint x="323" y="735" as="sourcePoint" />
            <mxPoint x="373" y="685" as="targetPoint" />
          </mxGeometry>
        </mxCell>
        <mxCell id="3nAupuR_qFFhwJhfHygy-10" value="" style="endArrow=classic;startArrow=classic;html=1;rounded=0;entryX=0.5;entryY=1;entryDx=0;entryDy=0;exitX=0.5;exitY=0;exitDx=0;exitDy=0;" edge="1" parent="1" source="3nAupuR_qFFhwJhfHygy-1" target="3nAupuR_qFFhwJhfHygy-3">
          <mxGeometry width="50" height="50" relative="1" as="geometry">
            <mxPoint x="133" y="615" as="sourcePoint" />
            <mxPoint x="183" y="565" as="targetPoint" />
          </mxGeometry>
        </mxCell>
        <mxCell id="3nAupuR_qFFhwJhfHygy-14" value="OBJECT JAVA" style="edgeLabel;html=1;align=center;verticalAlign=middle;resizable=0;points=[];" connectable="0" vertex="1" parent="3nAupuR_qFFhwJhfHygy-10">
          <mxGeometry x="-0.0321" y="1" relative="1" as="geometry">
            <mxPoint as="offset" />
          </mxGeometry>
        </mxCell>
        <mxCell id="3nAupuR_qFFhwJhfHygy-11" value="&lt;b&gt;PRODUCT DB&lt;/b&gt;" style="shape=cylinder3;whiteSpace=wrap;html=1;boundedLbl=1;backgroundOutline=1;size=15;" vertex="1" parent="1">
          <mxGeometry x="-80" y="905" width="160" height="130" as="geometry" />
        </mxCell>
        <mxCell id="3nAupuR_qFFhwJhfHygy-12" value="" style="endArrow=classic;startArrow=classic;html=1;rounded=0;exitX=0.5;exitY=1;exitDx=0;exitDy=0;entryX=0.5;entryY=0;entryDx=0;entryDy=0;entryPerimeter=0;" edge="1" parent="1" source="3nAupuR_qFFhwJhfHygy-4" target="3nAupuR_qFFhwJhfHygy-11">
          <mxGeometry width="50" height="50" relative="1" as="geometry">
            <mxPoint x="-16" y="725" as="sourcePoint" />
            <mxPoint x="34" y="675" as="targetPoint" />
          </mxGeometry>
        </mxCell>
        <mxCell id="3nAupuR_qFFhwJhfHygy-15" value="OBJECT JAVA" style="edgeLabel;html=1;align=center;verticalAlign=middle;resizable=0;points=[];" connectable="0" vertex="1" parent="1">
          <mxGeometry x="-3.9959583897960336" y="459.99638363332093" as="geometry" />
        </mxCell>
        <mxCell id="3nAupuR_qFFhwJhfHygy-16" value="OBJECT JAVA" style="edgeLabel;html=1;align=center;verticalAlign=middle;resizable=0;points=[];" connectable="0" vertex="1" parent="1">
          <mxGeometry x="-3.9959583897960336" y="669.9963836333209" as="geometry" />
        </mxCell>
      </root>
    </mxGraphModel>
  </diagram>
</mxfile>
